/* XPM */
static char *a3afc270fdc442e78bbe0069a576bc21[] = {
/* columns rows colors chars-per-pixel */
"64 43 221 2 ",
"   c #050000",
".  c #0B0301",
"X  c #0C0808",
"o  c #110602",
"O  c #150B03",
"+  c #180A01",
"@  c #140D0A",
"#  c #190E0C",
"$  c #15110E",
"%  c #1B130D",
"&  c #1D1511",
"*  c #1E1914",
"=  c #1A1916",
"-  c #21150E",
";  c #20190F",
":  c #231A14",
">  c #291D15",
",  c #231D19",
"<  c #2A1E19",
"1  c #251611",
"2  c #25211D",
"3  c #2B231C",
"4  c #2B241B",
"5  c #33261E",
"6  c #31281F",
"7  c #2C2522",
"8  c #2D2A24",
"9  c #2A2828",
"0  c #322723",
"q  c #332A25",
"w  c #3B2A22",
"e  c #332D2A",
"r  c #3A2E2A",
"t  c #36312C",
"y  c #3B332C",
"u  c #3F352A",
"i  c #2F2D30",
"p  c #362F31",
"a  c #3C3532",
"s  c #3D3934",
"d  c #3E3B39",
"f  c #373333",
"g  c #42352D",
"h  c #423632",
"j  c #443B35",
"k  c #4A3D35",
"l  c #453E3A",
"z  c #493E3A",
"x  c #4A4036",
"c  c #45413C",
"v  c #4B433C",
"b  c #52453C",
"n  c #52493F",
"m  c #56463A",
"M  c #454141",
"N  c #4C4542",
"B  c #4E4944",
"V  c #4E4C49",
"C  c #514642",
"Z  c #534B44",
"A  c #594C44",
"S  c #534E4B",
"D  c #594E4B",
"F  c #55514C",
"G  c #5B534C",
"H  c #5C564C",
"J  c #565352",
"K  c #5B5552",
"L  c #5E5955",
"P  c #5E5C5A",
"I  c #625145",
"U  c #61554D",
"Y  c #645A4F",
"T  c #625654",
"R  c #635B54",
"E  c #695D55",
"W  c #645D59",
"Q  c #6B5D5A",
"!  c #6A5751",
"~  c #604D46",
"^  c #66625C",
"/  c #6B635C",
"(  c #696057",
")  c #72645D",
"_  c #72695F",
"`  c #666262",
"'  c #6D6562",
"]  c #6D6965",
"[  c #6E6D69",
"{  c #696468",
"}  c #736661",
"|  c #736B64",
" . c #7A6E65",
".. c #736D6A",
"X. c #7B6E6A",
"o. c #76716C",
"O. c #7C736C",
"+. c #7B766B",
"@. c #767472",
"#. c #7C7572",
"$. c #7D7975",
"%. c #7E7C79",
"&. c #806F68",
"*. c #82746C",
"=. c #88766F",
"-. c #84786E",
";. c #827572",
":. c #847B75",
">. c #8A7C75",
",. c #847D7A",
"<. c #8A7E79",
"1. c #8C8276",
"2. c #86827D",
"3. c #8B837C",
"4. c #918176",
"5. c #93847C",
"6. c #92887F",
"7. c #99887E",
"8. c #837E82",
"9. c #868281",
"0. c #8C8582",
"q. c #8E8A85",
"w. c #8E8B89",
"e. c #888786",
"r. c #928682",
"t. c #9A8780",
"y. c #948B84",
"u. c #9A8C85",
"i. c #938D8A",
"p. c #9A8F89",
"a. c #9C9086",
"s. c #95928C",
"d. c #9C938C",
"f. c #939087",
"g. c #938F90",
"h. c #969392",
"j. c #9C9692",
"k. c #9E9993",
"l. c #9B9A99",
"z. c #A18E84",
"x. c #A2958C",
"c. c #A1998E",
"v. c #A8998C",
"b. c #A9968F",
"n. c #A19792",
"m. c #A49B94",
"M. c #AA9D94",
"N. c #A39D9A",
"B. c #A99D99",
"V. c #A99793",
"C. c #B19F99",
"Z. c #ADA196",
"A. c #A4A29C",
"S. c #ACA39C",
"D. c #AFA89E",
"F. c #B2A297",
"G. c #B3A59D",
"H. c #B2A99F",
"J. c #B9AB9E",
"K. c #A39FA0",
"L. c #A6A3A2",
"P. c #ACA5A2",
"I. c #ADA9A4",
"U. c #AEABAA",
"Y. c #B1A6A1",
"T. c #B9A7A1",
"R. c #B3ABA4",
"E. c #BAAEA5",
"W. c #B3ADAA",
"Q. c #B8AEA9",
"!. c #B9B1A6",
"~. c #B5B1AC",
"^. c #BCB3AC",
"/. c #BDBAAE",
"(. c #B7B0A6",
"). c #B5B2B3",
"_. c #BBB5B2",
"`. c #BDB9B5",
"'. c #BFBCBB",
"]. c #BBB7B8",
"[. c #C1B5AC",
"{. c #C4B9AE",
"}. c #C3B3A6",
"|. c #C0B7B1",
" X c #C3BBB4",
".X c #C3BDB9",
"XX c #C9BFB9",
"oX c #C8BFB5",
"OX c #CAC1B6",
"+X c #C5C1BD",
"@X c #CBC3BC",
"#X c #CCC8BF",
"$X c #D2C5BC",
"%X c #D3C9BE",
"&X c #C1BCC0",
"*X c #C6C3C2",
"=X c #CBC6C2",
"-X c #CDC8C4",
";X c #CECBCA",
":X c #D1C5C1",
">X c #D4CCC4",
",X c #D9CFC5",
"<X c #D3CDCA",
"1X c #D9CFC9",
"2X c #D6D0CC",
"3X c #DCD4CB",
"4X c #D9D1C7",
"5X c #DDD6D1",
"6X c #DED9D5",
"7X c #D4D5D0",
"8X c #E1D7CE",
"9X c #E4DCD4",
"0X c #E3DDD9",
"qX c #E5DAD4",
"wX c #EBE3DC",
"eX c #E6E0DB",
"rX c #F1E4DC",
"tX c #E9E5E1",
"yX c #F4ECE6",
"uX c #FBF4EB",
"iX c #FFFCF5",
/* pixels */
"A.~./.6 | /.@Xd.l 2.N.I.]   J L.*X{ @ U.*XI.=X+X/ Z O.3.H.!.R.{.;.. G R.u.d.d.y.y.& & 2.^.A.N.W.'.e.X 9.,.#.#.0 *.} O.| C W ,.M ",
"A.I./.Z D.9X5X(.a 0.Q., . s._.U.L.8.J ;X*X.X<X<X+X  % +.c.S.R.Z.^.u c.m.S.V.p.:.i.c k.|.P.~.+XA.&Xl., ] ,.#.h & < } X.;.3.T l p ",
"H $.f.4 | 3.|.wX3.B 0   B k.w.i.K.,.J *X*X+X_._.d.3 T Y v _ d.R.y.q M.y.S.n.y.n.S.T S.m.Q.`.~.~.U.U.M M ..W 0 :.<.o v :.#.m.] s ",
"A.q.] 4 d.y.:./ :.# h r. X@.W F J S i W.;X=X_._._./ m.d.O.R x E 4 y S.m.m.m.:.2.m./ S.E.~.P.k.].).*XM $ #.l @ d.B.;.3 3 ..i.' $.",
"3.k.0.' >X X^.Y.B.: W R.N.)..XU.h.` X 9..XW._..X=XT 2.u.n.^.d.( + | S.6.u.S.m.;.N.F O. Xk.W._.h.{ 9 i d 9 . ,.B.>.V. Xr   ' S ..",
"k.I.o.' ^.|.XX.X0Xi.h j.i.N.i.w.w.h.M d 9.`.0X+X^.H | p.c.1.3.R.v 5.m.6.S.:.:.Z ^.B y m.0.@.v * S @.W.-X$.@ ,.j.m.y.0.V.' a 7 i.",
"i.m.W :.S.P.R.Y.Q.P.# M L ` ,.9.$.d $ e *XtX`.A.l B /  .y.d.d.O.- A | 6.^.n.:.E j.7   e a N S j.U.).W.].l < y.p.V.p.<.5.S.Y.l 3.",
"i.j.K y.B.N.P.Q.:XC p N T ..$.s V L.-X$ s q...F #.4 j o.| O.d.y R d. .D x d.>.O.y.: l G F s.j.i.9.L.I.`.7 l p.y.p.m.5.B.m.d.G ,.",
"y.2.R O.n.V.Y.B.D Q _.' q 0 r 9..X5X<XL $   / q.(.N.Z j / O.^ r S.E.R.S. .H j T y +.m.#.W 2.N.i.h.e.A.L.  3 n.n.u.y.3.E.R.#., q.",
"3.n.l ' u.V.V.Q D p.;.V.l : Q. XI._.6XK X ' ] N.,.Q. XR % R 3 S O.u.d.E.|.^.:.  G :.d.3.B F 2.N.e.h.2.^ s 4 q n.R.x.d.x.|.| & l ",
"y n % ) u.5.X.) C.5.} <.V.a  X_._.W.=Xj.^ s.' ,.m.j.:.0.z o a |.d.O.>.R.d.R.S.z y.y.,.y.W F @.9.,.h.i.a O.S.D : x.:.S.S.S.C c Z ",
"d.| A A k w w V.T.<.<.<.r.A j  XP.`..X^ d o.@.^ ] :./ S.P.  <.Q.@X,Xy._ n.@XZ T 3.i.0.,.S 8 ^ @.N.%.w.l ] Z.x.H > A H.M. .^ Y.S.",
"5.1.Z.u.>.A ~ C.t.x.>.E D E 0 y.`.~.<XK a 2.G l D #.^.S.n.o r.n.V.@XwX Xd.T r 2.i.0.0.O.^ 7 K o...o.{ J y.#.a.y.u.A D d.|  .3.y.",
"x.d.a.Z.F.m *.t.x.5.t.g A V.T 3 m.P.A.F $ ^ o.m.d.0.P.j.' < n._.n.S.R.@X1X3 Z d.j.:.3.q.N.S l ^ #.s.l a 3.3.x. .x.$XU < x m.:.u.",
"7.1.) 5.4.k 5.4.z.t.V.=.b M.b A j S.;XG   a G K #.,.:.N.D l +XS.Y.n.R.:Xd.3  .v | $.i.n.k.K $ K ` #.t ..0.] O.E M.E.OX/ . D 3.:.",
"1.x.a.*.n I 7.=.u.5.t.5.5.b A ^./ c S.a / =X2.] v B #.^.l # S.Q.S.S.H.>XE . y | :.i.,.,.9.,.# V F ]   a L T / 1.) ^.R.x d.:.a ^ ",
"y v h r < - >.>.5.=.t.b.&.5 E.t.x.:.6 0 ^.6X6X<X<X..% y 3 D n d.R.c.m.(.% k Z :.9.i.2.o.` P   f F t R 9.8 | u.#.2.,.,.W Y.~.N.@.",
"<Xj . i.y.j : X.*.u.u.>.w C.T.M.u.O.- O m.:X5X=X.X=Xd.: n ,Xc.g 1.Z. Xv : iXm.e W ,.@.@.f p i X l , q.-Xm.B G i.$.,.d $.R.I.Q.).",
" X/ ' N.d.Q.W h A Q p.} m G.>.>.E *.n y d.S.-X@X>X(.^.y *.R.{.{.x R ^.: k.3XuX^ & s 9 c ..W.).S @ v q.S.2XW.v B k.q.. i.R.I.I.I.",
"Y.y :.N.j.j.B.r.z r k 1 ! ! =.5.F.E.) b d.S.>X.X<Xn.d.n R.M.}.%X%XR 4 j ^.#X2X`.Z $ P N.L.h.g.2Xo.^ yXW.I.-X-Xe S N q A.k.N.I.W.",
"| y X.,.B.0.S.<.y.<.b 0 *.>.M.T.F.J.! A u.m.#X@XH.R.>.E {.}.$XF.E.^.: %X^.R.+X:X^.8 #.R.h.L.i.2.F / 4X9X .m.>X0XN   / N.j.P.I.k.",
"s ' / ..n.,.O.X.r.y. .C <.>.>.M.>.v.I &.u.t.E.|.d.c.Y 5.F.u.}.%X>X:.| ^. X@XW.:XI.c N N.N.i.i.q.0 p.^.d.^.+.W .X+X% ,.i.N.Y.S.q.",
"2 q.#.F B #.3.r.>.O.) r 5.=.4.C.F.v.5 -.a.x.Z.S.x.d.A M.M.v.z.v.E.R O.%X|.R.d.d.k.k.N ..2.9.q.] 4 u.Z.^.`.3XI.0.P.7 O.d.k.k.P.N.",
"@ S 9.$.l | y.:.3.r.h 1 *.4.*.A m I + 4.u.y.d.R.H.y.A Z.a.M.7.G.1.k *.3. .S.^.E.^.3.j :.] ] $.o.: 1./.OXE.^.wX`.j O a d.R.P.j.' ",
"^ 2 a c E ^ / ' :.X.o . + g w I u.G.m *.5.>.u.y.O.n G G.F.Z.u.a.x m.{.d.<.^.Y.E.3.e 7 / | | 9.L : (.S.S.R.m.3XS.O x  .j 0.Q.r.l ",
"N.2.B 2 & L / W } u > *.H.}.V.$X$XuX .o v A v Z /   / [.y.4.$XA G H.m.!.R.n.| y D e 7 q.F G R % O v 1.S.6.y.#XT 3 iXwX' v i.d.0 ",
"2.q.$.2.B , 7 W | 3 ;.1X[.E.G.x.OX9XE.g d.R.+X@XiX^ C  Xm.F.v.u x.u.r.*.n . o O.^.^.j /  .v k / oX:.G H d.@XZ.3 / 9X.XyXY.^ 3 G ",
"i.,.K L d.$.^ 0 3 0 R.^.t.^.$Xx.{.3X3XO.>X X+X_.P.+XR 3.2.M.k + U k ) *.O.o j @XS.XXE 3 3.H :.uX X%X^.G y O.n   m.@X X5X1XY.0 :.",
"%.2.^ K y.i.j.O.O k m.;.u.8XrX%Xd.>Xn.x 5X-X`..X~..X..y ' k g A T H. X@XR.. y.H.d.R.@Xy ; j S.4X3X>XM.m.Z.| . ^ >X X>X X8Xd.z m.",
"q.` F N.I.i.3.Y.Z x V.V.5.G.3X|.^.R.| e .X.X`.'.*X<Xq.  $.S.5X3XY.^.S.M.m.q H.M.Z.u.3XO.  / @X,X%X5.*.Z.m.^.:.R H.@X,XXX1XG W :.",
"9.] ] s.i.s.9.m.Z Z S.>Xm.5. X%X8Xj.d.S .X*X;X-X).'.].W I.W.R.+Xx.X.V.B. .j O.m.Z.a.H.H.x m.S.|.Z.1._ 1.R.oXm.j m.@XS.>X^.: :.u.",
"%.L $.[ 2.s.q.+.t d.R.^.%X5.O.@Xn.m. X3 S..XU.].-XL.*XJ ..q.I.P.R.>./ <.D } B.d.m.S.n.S.D H.D.^.6.OX%X:. .>.[.A | @XY.:X#.# ,.;.",
"^ P K [ @.F 2.o.y :.:.n.u.y.y. .d.E.m.j d.R.Y.+XeX(.wXe t 9.s.j.a.a.n.;.% z ,.W ' l ` B j Q.S.2.D.@XOX!.d.O.x < 3 | =XI.q . e K ",
"= 7 d s d ..d.8 3 y.2.0.Q.R.Y.O.t. X^.. :. XE.R. XeXj.e $ j.#.i.k.1.G R : : S w...8.9.W L  X%.d.>X,X!.OX^.d.3 u.d.j ' O.7 3.7 r ",
"A.[ [ c 2 s N & . < j O.d.<.|.n.u.n 4 v 6 H.^.R.@Xd.^ tXZ a j...H n  .@XS O..X<X-X).-X-X' ^ s.3X3X!.#X9X^.D  .5.i.^.K & ..X.D _.",
"I.l.;X+Xh.F c ~.=Xd.R a k E <.U 5  .m. X2.^ |.@X:.W 2X0XW.  S B u 1.>X3XS i.k.i.h.,.U.)...S <XR.!.3X>X>X( A n.d.3.d.K G X.. 9.N.",
"~.e.A.~.5X2X9.+X>X3X#X.X:Xp.- q y.M.[.m.|.^ d.| ^ 3X|.5Xj.a @ K O.y.4Xm.* :.q.d.L.q.9.,.%.$ ^ #X@XOX8X3.: D :.3.j.,.B y.N.G D _.",
"U.s.+X+X*X;XL s ..+XyX1X1XyX:.Z 6.u.-.H.@XV.O / 1X^.:X@Xj.k.e 3.^.D :.T   y Z W $.9.$.] I.,.. v q.#XE.G R. .c u.j.G N 0.0.d.T X.",
"L.h.~.U._.;X] F wX|..X1X:XqXR.j p.:.B.R.S.:XH m. X2XR.Q.n.>X..^ a.2.^ 0 #.T e K K L o.k.=XL.^ `.y B G 0.S.s.H T 3.z O.0.p.d.O.# ",
"2 %.].W.+X-X] i.=X X.X3X>X^.XX/ D d.m.d.|.E.: :._.(.+XY.j. Xy.y d.>Xm.y Y.d.] y B @.] ,._.2.l.*Xi.* m.k.,.S.u.B D 3 j.0.;./ ' #.",
"9 V '.+X.Xi., K Y. X=X X@XS.R.:.3 m.3.S.E.F t y ^. X^.d.R.3XS.k R.Y.G ^ d.3.d.v F 2.2.#.q.#.N..XP.l i.3.$.L D ,.a | ;.<.| :.r.r.",
"B @.9.~.j.,   3 m.|..X.X|.y.| z @ B ^.d.e :.>XZ } P. XP.m.E.d.k O.n.j K ^ | 0.#.l B ] @...] I.U._.e W @.L S 0.,.@ j Z ' ' ,.u.u.",
"^ 7X%.a $   e $ :.W.S.Q.S.} : . Z 8 | F o.^.+Xd.: 3.S.m.y.m. X<.Z 0.& / | 2.;.2.R 8 K [ l J ].I.<Xc # S q.#.q.N B W R #.O.<.>.*."
};
