/* XPM */
static char *_fe5b7e9fd3644aab840ffcbad6b1042[] = {
/* columns rows colors chars-per-pixel */
"64 64 198 2 ",
"   c #5E3302",
".  c #5D3D0A",
"X  c #633501",
"o  c #633A05",
"O  c #6C3E04",
"+  c #603709",
"@  c #643D0A",
"#  c #6B3F0C",
"$  c #653F11",
"%  c #693E11",
"&  c #6D4203",
"*  c #64420D",
"=  c #6C430D",
"-  c #6D490F",
";  c #704204",
":  c #734804",
">  c #72450C",
",  c #78470C",
"<  c #75490E",
"1  c #7A4B0C",
"2  c #7A510F",
"3  c #664313",
"4  c #6D4512",
"5  c #6A4916",
"6  c #6D4A1A",
"7  c #714613",
"8  c #744B14",
"9  c #7B4C14",
"0  c #734619",
"q  c #754C1A",
"w  c #794E1B",
"e  c #7B5115",
"r  c #75521D",
"t  c #7C521D",
"y  c #734E21",
"u  c #7B4F22",
"i  c #755323",
"p  c #7D5422",
"a  c #765826",
"s  c #7D5925",
"d  c #765728",
"f  c #7B5729",
"g  c #7B5929",
"h  c #80530F",
"j  c #814F19",
"k  c #835414",
"l  c #8A5416",
"z  c #845915",
"x  c #895E17",
"c  c #83551C",
"v  c #89571B",
"b  c #84591D",
"n  c #8C5B1C",
"m  c #8C601B",
"M  c #90661E",
"N  c #825623",
"B  c #8A5722",
"V  c #845A24",
"C  c #8B5D24",
"Z  c #815629",
"A  c #855C2A",
"S  c #8A5D2A",
"D  c #925E22",
"F  c #915E2B",
"G  c #8C5D31",
"H  c #8C6125",
"J  c #85612B",
"K  c #8C622C",
"L  c #8F682D",
"P  c #936325",
"I  c #986425",
"U  c #93642C",
"Y  c #99662B",
"T  c #94692E",
"R  c #9B6A2D",
"E  c #866333",
"W  c #8D6432",
"Q  c #8D6934",
"!  c #8D6738",
"~  c #8E6C39",
"^  c #926632",
"/  c #996735",
"(  c #946A34",
")  c #9A6D34",
"_  c #9A6738",
"`  c #956D39",
"'  c #9A6D3A",
"]  c #977036",
"[  c #9D7235",
"{  c #95713C",
"}  c #9C733C",
"|  c #9F793B",
" . c #A16B2D",
".. c #A16C33",
"X. c #A16F3A",
"o. c #A27336",
"O. c #A87234",
"+. c #A57A36",
"@. c #AC7937",
"#. c #A3743C",
"$. c #AA763A",
"%. c #A3793D",
"&. c #AC7A3D",
"*. c #B17D3D",
"=. c #956F40",
"-. c #996E41",
";. c #957242",
":. c #9D7542",
">. c #9E7844",
",. c #9D7748",
"<. c #9D7A4A",
"1. c #A57645",
"2. c #A27643",
"3. c #A67A43",
"4. c #A27845",
"5. c #A67A46",
"6. c #A77C47",
"7. c #A47A44",
"8. c #A97A42",
"9. c #AD7B41",
"0. c #AE7D42",
"q. c #A87B44",
"w. c #AA7D46",
"e. c #AA7D46",
"r. c #AA7C44",
"t. c #A47749",
"y. c #A67E4A",
"u. c #A77D4A",
"i. c #A57C4A",
"p. c #A97A49",
"a. c #A97D48",
"s. c #AA7E4A",
"d. c #B17F42",
"f. c #B47E40",
"g. c #B17F43",
"h. c #A97E51",
"j. c #AC823E",
"k. c #A48044",
"l. c #AC8145",
"z. c #A5814C",
"x. c #A9814D",
"c. c #AC824C",
"v. c #B28045",
"b. c #B48044",
"n. c #B38244",
"m. c #B98545",
"M. c #B58944",
"N. c #B98C47",
"B. c #B2844C",
"V. c #BA864A",
"C. c #B6894C",
"Z. c #BF894B",
"A. c #BF8C4D",
"S. c #BD8A4B",
"D. c #BD924D",
"F. c #A48252",
"G. c #AE8652",
"H. c #AC8452",
"J. c #A98956",
"K. c #B28653",
"L. c #B48B57",
"P. c #B48A54",
"I. c #BC8D53",
"U. c #B28C59",
"Y. c #BB8E59",
"T. c #B89055",
"R. c #BB925D",
"E. c #BE9560",
"W. c #C18C4D",
"Q. c #C2944E",
"!. c #C28E52",
"~. c #C08C51",
"^. c #C18D52",
"/. c #C18E59",
"(. c #C49054",
"). c #C39355",
"_. c #C79C54",
"`. c #CB9D55",
"'. c #C59358",
"]. c #C79559",
"[. c #C4945B",
"{. c #C9965B",
"}. c #C99758",
"|. c #C59A5C",
" X c #CA9B5B",
".X c #D49F59",
"XX c #CDA157",
"oX c #CDA35A",
"OX c #D1A75E",
"+X c #C29761",
"@X c #C39963",
"#X c #C99C62",
"$X c #C49D6A",
"%X c #CEA365",
"&X c #CDA46D",
"*X c #D2A561",
"=X c #D2A860",
"-X c #D1A46C",
/* pixels */
"C Y Y D ..Y n f.@.@.&.b.Y c Y / K ^ ^ ^ ( W S W ( ` K C / ) U U F Y U P ..P l f.*.@.$.d.Y l Y Y F _ _ ^ ^ S S ^ / / ( V ' ( ( ^ ",
"9.9.&.$.v.O.Y !.Z.A.!.{.v.) 8.e.x.i.:.:.i.2.K V ^ ^ C C } q.#.#.8.#.#.#.d...D W.W.A.A.].v.) &.8.p.p.2.2.s.1.S N ^ ^ U V #.#.3.#.",
"2.#.#.o.9.O.Y !.!.!.!.'.0.Y #.' 2.x.i.4.4.( S S A S c V ) 3.#.#.a.#.#.$.g.$...{.!.).!.].0.Y [ ) 2.p.5.1.p.' S N C V V t } #.3.2.",
"/ / ) U R ) Y 0.9.&.$.9./ V K V 7 p p p p w 7 w t V c N ( ) / / ( ^ ( C P Y P &.&.0.&.0.T c K A q p t w t w 8 w N N C t ) ( ' ) ",
"4.6.a.U U o.R ) Y Y Y ) U J ' ^ :.' K ^ G.L.i.:.( 2.2.#.e.e.3.e.2.5.5.K C ) Y R Y R Y ) U C ' ^ :.{ K Q i.K.i.4.' 2.e.} B.q.0.q.",
"K W ^ t 9 C B b b c 9 V N p K p A A w p W ` W K N K U K ^ U K K W ` { N t U C b b b c C N t K p s s p s W ! J K V K ( C ' U U S ",
"y.:.i.2.} q.3.e.q.e.#.a.5.:.4.Q K ` ` ^ ` ^ ( 2.^ ` ^ U / ) U K :.` 6.} ) 8.3.#.0.e.2.a.5.:.t.W J ~ { ` ` ! Q { ^ ^ ( C #.^ U B ",
",.A ^ ` ^ K C ) K U J ` ^ K W q q p t t V V p V ^ ^ V c S U V t ` V ^ ` ^ ^ K / U U S ` ^ W E 6 i i 6 6 s s p s ^ J V 9 U C N 9 ",
":.,.W q 8 w 9 9 7 t 7   @ 4 4 3 4 4 4 4 = = 7 w c.c.#.) #.} ) ' 4.7.W q q t 9 9 w 9 q   @ y @ 3 5 * * * * * 4 r c.l.#.' ' } X.) ",
":.,.Q N K ( ) ) ) 3.( t t s s s q q w t t t t t c.c.3.#.3.3.} #.{ { J t V ^ ( / ' _ ` w p W f A a r r a p r p V c.l.3.#.#.2.#.#.",
"z.z.{ W } 5.3.3.#.s.' p q q q i p p p p V V p w } 7.#.#.e.e.3.e.l.x.} ^ } l.e.e.q.q.} p y p 6 p r r r p r r r t 7.2.#.#.3.q.q.q.",
"A A t q S ^ U K K U N = # = # 3 o @ @ o o o X   N A V C K C V C V V e 8 V K C C ^ U V 4 % % + $ @ @ @ @ o o o o V V V C C C C C ",
"N A V K 5.B.c.c.#.3.) K ( { ` ` ^ ' ` W K K ^ ^ K ^ K K U N 9 t t V b H #.l.8.8.#.#.^ W ' -.-.' ' ` ` ^ W W ^ ^ ^ U U U S c t t ",
"` ' ( ' c.B.8.e.#.#./ ( 2.6.2.:.>.y.i.{ ` } 6.a.a.a.e.s.c.#.) #.( [ ( [ B.C.l.v.#.2.U ( t.t.t.:.4.1.2.' _ } 2.1.s.p.e.c.e.} ' #.",
"G.G.5.2.e.3.#.$.0.0.#./ 2.2.} :.Q ` ` W W { 5.5.} } #.3.e.} ) 3.8.k.} [ %.#.) o.B.C./ ' t.-.:.' ' ' ' _ _ 2.q.p.#.} #.e.3.} } 3.",
"K J N t C C C Y U U c < 8 7 = 8 V S S V K } 3.#.) ' ) ) } U B ( K H b c C C C Y C U 7 9 w # q 8 B C F B F / X.X.X./ ) #.) K H ( ",
"} t = q = = 7 @ = = = & O = < & I.A.A.I.!.).).).].!.!.].'.B...U ) q = q = = 7 # 7 = > > O > < O I.!.!.!.).].].].].I.I.].|.B.[ Y ",
"( t t V p A ` ^ W K ^ ^ K T ( H S.Z.Z.m.d.&.&.d.d.&.&.v.g.$.) Y ^ r r V p A ` ^ W K ^ Y H U Y n S.Z.Z.m.b.*.*.d.&.&.&.v.v.$.) R ",
"l.%.6.l.3.c.E.@X$X$X&X&X@X#X%X|.C.A.W.S.0.$.$.0.0.&.9.0.9.#.#.%.c.6.l.l.6.c.E.+X@X#X-X-X#X#X%X}.m.S.W.S.d.$.&.0.&.&.&.8.8.$.#.#.",
"H H H H A J ( ( A A J A 8 8 e < C H P H C n n C B b v C U H U Y C H U K C J ( ( S S K C 9 9 e 1 C P P P C n n n v b b C C H U U ",
"H P P K U K C V ^ ^ U V 8 8 t 9 < < > < < < > ; t 9 9 V U ( / / C P U U Y K C S ^ K U V > < e 1 1 , , < 9 9 < > 9 9 e V U ) ) T ",
"M.M.j.j.l.) C K ^ U ^ S V K ) ) #.) T ( ) ) U C B t t A ^ ^ K C b.b.&.0.g.) C U U K U J V K ) ( $.[ ) ) [ ) Y C V V N A ^ ` K V ",
"OXoX_._. Xl.) e.2.#.2.2.#.s.Y.P.B.c.l.l.l.e.7.} c.6.7.6.a.4.} ) *X X).{. X0.) 8.2.#.2.7.#.c.T.P.C.B.c.c.c.a.7.} e.l.i.7.i.6.:.( ",
"Q.D.M.D.].&.) P.B.q.q.2.' #.2.' } } } %.} } } } :.} :.4.4.:.} #.W.Z.m.W.).$./ C.s.3.3.#.) } %.[ } #.#.#.#.} } } { 7.4.:.:.:.:.` ",
"M.M.N.&.C.[ U C S U S S S V N S S V A K ^ J V V A V V A V p p V b.m.N.&.A.R C ^ C U J V A V V A V V A U ( K V p K p V K A s s p ",
"1 1 k z &.&.B.B.s.s.p.1.1.' / #.} } } 6.l.7.} } t q q w q 7 7 w k 1 1 k v.l.0.B.a.c.a.2.7.} ] } } ' } e.l.3.} } N 7 q t q q q 5 ",
": & & O C C S S S S S S ( ^ U / U T ( [ } } ` ` = = = 4 4 = = = 8 ; o X Y K C A A W K J ( ^ K ` U U ( ) } ) ` ` 8 = = 4 @ = 4 = ",
"%.%.%.( B.a.a.4.p.6.4.2.p.} ^ ) } } %.7.3.7.7.7.a.6.6.a.s.x.a.a.} 7.3.` K.5.4.i.i.x.4.7.6.} ( ) #.#.#.3.q.3.3.3.c.6.a.x.4.i.x.i.",
"( ( ( c ^ A K S W W S W ` ^ S K T T T T ( ( U K U K U K ^ ^ ^ K K { ` p Q A A W W K A K ` ^ H K ( R / T ( ( T U K J U ^ K W ^ S ",
"l.6.' 7 q 4 q q 4 0 q A :.5.2.6.} #.#.o.#.#.[ Y q.e.q.q.a.s.a.2.y.z.~ 4 s q q 5 0 7 0 A 2.7.} 7.#.#.#.#.#.#.[ T e.7.e.l.6.l.a.} ",
"L.G.:.q p y A Z p s s W 6.z.>.%.%.%.#.#.%.8.[ U 3.8.3.#.3.e.3.} H.J.;.6 E E A p f p p ^ l.6.} 3.#.$.$.$.8.8.[ H e.#.#.%.7.e.5.( ",
"6.:.W 3 0 4 4 $ 4 4 7 V } %.[ [ o.o.[ [ %.8.[ C ) ) ) / ) } ) K ` <.;.6 g i q 4 6 4 7 S %.%.[ $.[ [ o.o.%.&.R b #.) T T ( } } A ",
"/ S ^ @ @ 4 4 5 q 4 8 e 2 x M x x x z P z P n e B C C b b C C c A W ;.3 6 y 3 i r t t 9 1 n I n m z h P k m k 2 k b b c c b c 9 ",
"' ' 2.` :.W z.U.z.k.l.l.j.N.XXXX_.OXOX=XM.C.B.B.C.C.B.8.8.&.%.) ` ,.>.! :.! F.$XH.c.C.v.&.Q..X`.`.oXoX=XM.M.j.M.M.B.l.8.3.3.} ( ",
"} #.#.c.a.7 ^ } { { | [ T +.D.`.N.Q.).D.R [ ) [ U T U U / ) T H ^ 4.,.H.H.q ! ,.;.} %.[ R *.Q.Q.N.D.D.D.R R T [ U U U Y / ' ( S ",
"#.Y S K K = ^ x.,.7.6.%.) %.D.).D.D.S.).M.|.#X#X@X[.[.[.|.[.I.B.^ W K ^ ^ 4 W z.>.>.3.#.) &.W.Q.S.D.D._.M.|.|.|.|.|.[.[.@X+XY.B.",
"O X c w A p V ^ ^ W ^ U H Y [ ) o.[ T ) c U U U K S S K U U C V = X t q p t A { W K ( U C P [ [ [ o.R ) c U U H K C C K ^ U S V ",
"C C Y.B.R.R.6.i.G.s.H.c.a.B.B.%.%.8.%.#.9 c V S S S S S S C V b K V I.K.R.R.x.i.G.l.c.c.8.8.B.0.%.l.8.[ 9 c V C C V V S S S V V ",
"V t C 9 V V ^ ` W S S S S W ^ V b H K ( p ( :.s.K.s.a.5.' K C H b < C V C V ( K ^ S S K C J K C b H K U t ( #.5.K.x.i.4.' W S W ",
"B.P.B.P.K.A _ S ^ W ^ G S ^ ' ^ } ) U } ^ 6.6.t.' ' :.5.4.:.3.B.I.B.B.P.e.V #.S ' K J ^ K ^ ` ^ } } U ( S 6.a.2.{ ' :.4.1.2.u.K.",
"T U / T U c > N q q N N 0 0 w 0 0 q 7 7 w p p A S Z w N ^ U J T / U Y U U b ; c 9 w N w 4 7 q 4 7 t w 7 t N N A S A N A ^ W S ^ ",
") ) #.) #.#.( 2.#.' ' _ S S G Z p V t w N N p Z u p w V ` ) ` #.) / ) / #.#.( #.#.) ' ^ C S S N t A N w N N p p q w p A ` ' ' 6.",
"8 8 9 > 9 9 > j c 9 w q % 0 q 0 q t q q p w 0 q s s w w p w > 8 8 8 9 > 9 w ; 9 j 9 9 8 = 0 w 0 0 w q 0 t w 0 0 p N t w p q 4 q ",
"} ) } T Y U v ) ..) 2.1._ ' t.t.4.i.4.4.s.4.` ` ` ` W ^ } } [ } { ` } ( ^ U c Y #.X.$.#.' ' 5.4.:.6.4.4.i.4.` ^ ` ' ^ ^ :.{ ` { ",
"5.} q.8.8.) Y V.I.I.'.[.q.' 4.6.6.i.4.{ >.` A s A A p V } 7.7.7.>.{ i.a.3./ P m.!.~.[./.p.#.2.2.6.i.>.:.:.^ V p N N t V { i.i.i.",
"} ` #.#.#.R P m.!.S.!.I.#.S K ^ ^ ^ W K ^ S p w K W A V ` } [ ] { ` >.2.#.^ P m.Z.V.~.V.X.F U U ^ ^ K W ^ K t t K K V V ` } ' ` ",
"{ } } C P Y D  .O.Y ) o.U V V K p V p s Q ` K W p K K J ` [ [ { { :.} K S U B ....Y ....F B C C N s t V ^ W J K A Q K K ` { ` ` ",
"2.6.#.c B o.Y P Y c v U K S W ^ ^ ` Q ` y.x.4.i.^ 5.a.3.7.%.} %.:.i.>.t N ) Y U Y B B Y F U ^ ^ ( ! W ` z.i.4.l.^ 5.i.7.6.7.%.%.",
"K ] T H H H C H C S S W W S N p s p p s A K A V S C N c C U H c K ` L V H C V K S K V ^ S ^ p p s p s J J A A A V V c c B P B 9 ",
"[ 7.%.[ %.k.e.c.c.c.s.y.h.H.t.-.` ~ ~ ` ` { { { ( ( ^ K U ( Y H ] %.%.} 7.l.6.c.a.s.4.6.t.h.:.` ` ! ! ` { { { { ( ( U K U ( U v ",
"T ( H e 8 8 = 7 8 q 4 o # 0 4   . * * * . @ * 4 ^ ^ ^ S C C C C T T H e e 8 = > w w q @ 4 0 0 + @ . . . * @ * 4 ` ^ K S S K C c ",
"} } L b V H A J K ^ A 7 0 s f 6 q i i i i r i p U.L.G.x.a.l.x.l.%.%.H e b V H W S K W = q q Z 6 i y i i i i p g U.L.H.x.x.c.x.a.",
"%.%.( K ) #.7.6.:.i.{ N q N A p i i d a i i i r ,.{ ` ` { } :.{ 7.%.T H ( } 6.x.{ 2.4.w w q A i i i i g a i i g :.{ { { { { { } ",
"} [ K V ( } ` ` ` { W q 3 4 0 3 5 5 5 5 5 4 3 * y.:.{ :.4.4.:.:.[ [ K H ` } ` ` { { ^ q 4 4 q 4 3 3 3 5 3 * * 4 ,.:.>.4.2.:.:.4.",
"e t 8 8 J ` ` ` :.` K p p N N p p p r r 7 5 q t V t t t t 8 7 8 8 e 8 e U } ` ` { ^ V t q p t q r r r r 7 4 7 t p t p t w 7 7 w ",
"( [ T ( c.L.K.K.K.4.` ` 4.i.i.4.6.l.l.%.` ( #.a.e.e.e.e.#.Y Y ) ) [ T ( c.T.L.L.L.i.W } :.K.6.4.l.k.6.%.} ) } 6.e.8.q.e.#.Y Y / ",
"} } %.7.4.7.} } 6.:.{ { 2.4.7.} [ &.%.R T o.v.v.v.d.&.d.b.$.) &.} } 7.7.5.7.:.} 5.} { { 2.5.4.} [ %.%.R R o.g.v.v.d.&.0.v.#.) $.",
"} ` ^ ^ } } } { i.} W A A A V t z n n k l I Y R P P P  .O.Y D Y } ` ^ ^ } } } { 6.} W A A A V c c n n k l I Y R Y Y Y ..$.Y I ..",
"^ V 7 = 7 8 8 7 7 = @ O = = = > $.*.*.&.j.Z.W.m.Z.W.V.Z.S.@.Y R U V 7 = 4 7 7 4 7 = @ @ = = = > &.*.*.@.*.Z.W.m.Z.W.m.V.Z.$.Y Y ",
"^ A q 7 7 q t t t t t t t t t 9 m.Z.Z.m.m.N.m.b.b.m.b.m.S.9.) ) U V q = 4 8 w t w t t N V t t 8 C.Z.Z.m.m.m.m.b.b.b.d.b.V.&.) ) ",
"4.7.:.7.5.G.R.@XR.R.@X@X+XR.R.R.I.).).C.v.0.l.l.8.0.8.q.B.e.} #.2.:.:.:.4.c.Y.E.R.R.@X@X@XR.R.Y.I.).).A.B.g.l.0.l.l.8.e.B.0.#.#.",
"W ^ ` ^ ^ ` } 6.2.2.:.{ ' ' } 7.[ #.#.) U H K ( ^ ( K K ` ` K K W ^ ^ ^ ^ ( } 4.2.2.} } ' ' } 7.) [ #.[ Y K K U ( ( K K ` ( K W ",
":.:.{ ` ^ W K W ( ^ K V q > 7 q V V V V p p p s t s s A ;.<.:.,.:.:.{ ` ^ W K W ' ` K N 8 = 7 q V V V V p p p s r s p A =.<.:.,.",
"t q q q w t t w 7 q t t 7 = = 7 = * * = 4 4 3 * @ 3 3 3 i f y y t q 8 q w t t w q w t q = = = 8 = * @ * 4 = 3 3 3 4 3 3 i g i i "
};
