/* XPM */
static char *f54e2e83b7b4403bbbc3c377fa337086[] = {
/* columns rows colors chars-per-pixel */
"64 45 182 2 ",
"   c #41290E",
".  c #452D13",
"X  c #492F14",
"o  c #4B3217",
"O  c #473318",
"+  c #4D351B",
"@  c #4D391E",
"#  c #513719",
"$  c #52391E",
"%  c #4F3B20",
"&  c #4D3C2A",
"*  c #553D23",
"=  c #583E22",
"-  c #503F2B",
";  c #564227",
":  c #5A4126",
">  c #5C452A",
",  c #5E4A2F",
"<  c #544433",
"1  c #5C4933",
"2  c #5D4D3B",
"3  c #60472B",
"4  c #62492E",
"5  c #654D32",
"6  c #684F32",
"7  c #604F3B",
"8  c #665136",
"9  c #695136",
"0  c #675239",
"q  c #6D553B",
"w  c #6E593E",
"e  c #705537",
"r  c #71573A",
"t  c #71593E",
"y  c #5E5141",
"u  c #635544",
"i  c #6A5540",
"p  c #6F5941",
"a  c #665949",
"s  c #6B5D4D",
"d  c #745C42",
"f  c #795F43",
"g  c #735E49",
"h  c #766145",
"j  c #796146",
"k  c #76624B",
"l  c #7C644A",
"z  c #7D694E",
"x  c #6E6151",
"c  c #726554",
"v  c #7A6550",
"b  c #7C6954",
"n  c #776A5A",
"m  c #7A6D5C",
"M  c #7E7161",
"N  c #80674B",
"B  c #81694E",
"V  c #846D52",
"C  c #896E51",
"Z  c #836E59",
"A  c #867156",
"S  c #897155",
"D  c #85705A",
"F  c #8D755B",
"G  c #8E795E",
"H  c #907557",
"J  c #90765C",
"K  c #92795E",
"L  c #817464",
"P  c #8D7963",
"I  c #857868",
"U  c #8D7C6A",
"Y  c #947D63",
"T  c #997F65",
"R  c #968064",
"E  c #998166",
"W  c #92816F",
"Q  c #9C856B",
"!  c #9E896E",
"~  c #958471",
"^  c #9C8772",
"/  c #9B8976",
"(  c #9D8C7A",
")  c #A08768",
"_  c #A2896E",
"`  c #A48D73",
"'  c #A98F73",
"]  c #A49075",
"[  c #AA9175",
"{  c #A2907D",
"}  c #AD957A",
"|  c #AD997E",
" . c #B2977B",
".. c #B2997E",
"X. c #A59482",
"o. c #A89785",
"O. c #AE9A82",
"+. c #B59D82",
"@. c #B89F83",
"#. c #B6A186",
"$. c #B9A186",
"%. c #B7A38B",
"&. c #BDA58B",
"*. c #BFAA8F",
"=. c #BEA992",
"-. c #BCB5AD",
";. c #BEB7B1",
":. c #C1A78C",
">. c #C2A98D",
",. c #C6AE94",
"<. c #C4AF94",
"1. c #C4AC92",
"2. c #C9AF95",
"3. c #C3AE99",
"4. c #C6B297",
"5. c #C9B197",
"6. c #CAB296",
"7. c #C6B29C",
"8. c #CBB399",
"9. c #C8B398",
"0. c #CAB59A",
"q. c #CDB599",
"w. c #CCB49A",
"e. c #CEB69C",
"r. c #CCB49A",
"t. c #CEB99E",
"y. c #D0B79A",
"u. c #D1B99F",
"i. c #D1B99D",
"p. c #D2B99E",
"a. c #CAB5A0",
"s. c #CEB9A2",
"d. c #D2BAA0",
"f. c #D5BDA2",
"g. c #D7BFA5",
"h. c #D4BDA2",
"j. c #D8BFA2",
"k. c #D2BDA8",
"l. c #C3BCB4",
"z. c #C6BFB9",
"x. c #D6C1A6",
"c. c #D9C1A6",
"v. c #D9C1A5",
"b. c #D7C2AD",
"n. c #DCC4AA",
"m. c #CAC3BC",
"M. c #DBC6B1",
"N. c #DEC9B4",
"B. c #E1C7AB",
"V. c #E1C9AD",
"C. c #E2C9AE",
"Z. c #E4CCB0",
"A. c #E4CCB2",
"S. c #E9CFB4",
"D. c #E3CEB9",
"F. c #E9D1B5",
"G. c #E9D1B5",
"H. c #E5D0BA",
"J. c #ECD4B8",
"K. c #F1D9BD",
"L. c #CDC6C0",
"P. c #CFC8C1",
"I. c #D1CAC2",
"U. c #DCD6D2",
"Y. c #EDD8C3",
"T. c #E4DDD7",
"R. c #E3DDDA",
"E. c #E6E1DE",
"W. c #F3E9DD",
"Q. c #E6E0E0",
"!. c #EAE4E3",
"~. c #EEE9E6",
"^. c #EFE9E9",
"/. c #F4ECE3",
"(. c #F9EFE5",
"). c #F2ECEB",
"_. c #FBF1E6",
"`. c #FEF5EB",
"'. c #FFF9EF",
"]. c #FBF5F4",
"[. c #FFFCF4",
"{. c #FFFDFA",
/* pixels */
"; , G F F V l ; * ` h Y G w % q F K K K 4 > 9 S K B F 4 5 > K F V S w * 0 Y V Q V 5 : t E G T V 5 * f T S G F 5 > V G V T V : 5 ",
"w z h.0.s.x.! 8 P n.4.h.h.Y h G F.r.>.c.T j K F.&.n.A.j V ` V.1.V.e.l j } n.h.9.u.f q +.Z.&.e.g.f j } c.g.c.$.d d +.n.e.g.&.j 5 ",
"0 8 %.] | =.A ; h #.| +.%.k 0 z ..} [ +.d 5 j +.Q ..+.4 q l ..[ +.+., , S } +.} +.q 5 Y $.' $.} 5 q Q +...$.[ 5 5 Q $.} +.' w 4 ",
"> O d @ O > ; * @ d % O 5 ; @ ; 9 > 4 5 > > 9 q 4 + 4 5 > = 9 4 @ d > : 4 q ; , ; > : * 6 $ ; * : * 0 5 . * q = = 5 4 o = 4 * , ",
"1.0.9.Y l G 9.<.0.x.A h R t.<.4.u.d t K u.+.1.r.B q E h.+.r.&.d d _ <.1.<.<.d d ' 5.5.<.9.j j +.d.1.d.$.j j +.r.9.r.} l S +.>.5.",
"#.n.0.A 8 V x.*.t.d.z w A x.4.4.V.d q R A.>.u.c.l 9 Q V.&.V.r.d d Q g.u.u.h.q w ' r.r.9.9.0 5 ..c.1.e.+.t q } u.<.d.+.0 f &.e.1.",
"5 h z ; O ; V 8 w l ; @ ; z 0 d j $ $ 4 d 9 t d =   > t 5 t j = . 5 f 5 0 z   $ q f t w l @ $ 5 l 9 j f + $ d d 0 j f o + j j q ",
"0 ; G Q Q F h 5 w F ! Y Y j 5 0 T E T E q 9 d T T E Q 5 9 t Q T Y E t 3 j ` G Q K 5 > j Q G _ Y 5 , V Q Y Q Y , 0 f E Q T V 9 5 ",
"d Y A.1.y.n.Q f F F.<.9.S.G w E A.5.r.n.S q Q J.1.h.A.B t [ K.&.g.c.f j ' Z.9.g.d.d j +.Z.>.n.r.f f $.n.5.n.d.d z &.n.u.c.&.l d ",
"> 5 } ` } } j * q ` Q } ` f 5 t ` Q [ } d 4 l [ T [ ` 4 5 d _ _ ' [ 0 4 V +.Q } _ 0 5 V } Q ..Q > q S Q ` } Y 5 > V ' ' ..E 4 ; ",
"q > j : + , d 5 5 j , 5 , d 5 5 t = = 4 9 : 4 t : : 9 4 4 9 t 4 * 5 5 * 5 j $ * 5 5 ; 5 d * : 9 4 5 d t > ; 5 5 9 d 0 o $ q 9 0 ",
">.<.g.E w Y u.>.r.h.V w Q n.$.d.h.S q T c.5.1.u.V q ` h.>.c.u.d l Q n.r.5.>.B d } r.r.c.>.j d +.c.$.d.1.w d &.u.>.e.+.d j 1.d.&.",
">.1.d.K 6 F e.:.r.d.l 5 Y g.+.y.u.B 9 K h.5.1.u.l 4 Q u.&.u.1.q d Y g.9.5.&.j q [ 9.5.h.$.t q } c.+.e.&.9 w &.u.>.r.+.q d &.u.&.",
"d 3 d $ . > d 0 5 f : : * q 3 6 q $ + > q > 5 t $ $ 5 9 9 5 9 > o > 5 ; 5 f O + 5 5 ; 5 w + $ , 5 5 w 9 * * 5 0 w d 5   o 0 0 t ",
"5 9 } ` } } N > d [ _ } _ f q f [ _ [ } l 9 V } Q [ [ t d j _ [ ' } t 9 S $.Q } ' t 0 S +.Q +._ 5 d G Q ' } T 0 5 F [ ' ..Q 5 5 ",
"t J A.1.y.n.Q d F S.2.r.S.J q T F.5.5.h.S q Q A.5.r.n.V t _ F.>.g.c.f f ' V.9.g.u.t j +.Z.>.n.r.f f $.n.<.n.r.q j &.n.e.g.&.j w ",
"; , Q G Q _ w : w T Q Q } w 4 q ` K Q } q ; d Q S } } * 5 f Q K _ } ; ; j ' G ` Q ; : V Q J [ Y 5 * V ' Y ` Q * : V ` Q _ Y 5 $ ",
"w 0 f 5 , : d t t q > 4 * w d 5 j = ; 5 q 5 f t ; + 4 w 5 9 d > @ 5 0 f , d , = 5 d w 9 d * ; 5 5 d f 9 * ; 0 d t w 9 * > q 5 d ",
"&.n.9.Y d S V.1.g.n.G z G Z.9.n.V.V j Y F.e.n.n.S d Q A.5.Z.9.V d } d.g.V.r.z j } n.n.r.u.j d &.n.u.V.1.f z >.g.d.g.&.l B 1.c.e.",
"} r.1.S , B c.} @.h.z 5 V d.[ r.r.f 5 S g.+.&.9.d 5 Y e.+.d.&.q q Q &...g.>.4 9 Q 1.&.&.<.5 , ..r...9.+., 9 +.&.+.1...q q +.1...",
"5 = f 4 . $ w 4 : 9 * = * w ; 5 5 > * : 5 , , 0 : . > 5 , , t * * $ t ; , t $ @ 4 9 , , f @ @ , , 4 9 4 @ @ 5 q , 5 5 = * 4 > 9 ",
"w 5 +.} } } V 5 l ..} ..+.V q z } $.+.+.j d V $.....+.0 d z $...+.` B 0 F &.[ $.} d 0 Y $.} $.} q w Y +.+.+.` w d Q +.} +.Q t w ",
"t V n.9.g.A._ 5 F S.&.9.A.G 0 T Z.r.1.n.F d E F.1.g.n.f j Q V.&.g.h.j w } V.&.c.e.f w ..n.1.j.d.j q ..V.5.c.5.5 d &.n.1.h.>.j 5 ",
"* ; K V Y Y 9 @ , Q f _ Q > ; 5 T V K ` 4 @ 9 T S V Q 5 * 9 _ z Q T = , 5 Y Y K E , * d Y S Q V * 4 l S G Q S = $ V F V ` S O : ",
"B j S 0 + : F j l B > , > z S d V ; = d V l j l 5 $ 5 V d f S ; ; q B B 5 F * = 0 l z l V * : w V t z l * , z j B j d > 4 f j V ",
"<.d.e.E f Y n.1.e.n.Y q Q h.&.n.c.V d Q d.<.h.n.f B _ n.r.V.r.V q +.g.e.n.u.d l +.u.d.r.5.j j ..u.9.n.1.f t +.c.9.c.>.w q <.A.1.",
"+.1.$.V 9 V r.+.$.<.S ; Q u._ 5.5.t 9 S r.+.1.>.0 d V 1.} 9.+.t > Q &.} 9...5 0 Q >.1.&.+.9 w ' <.+.>.} 9 0 } 5.$.&.} q 9 +.9.+.",
": $ t * O = 4 * * 9 * + ; 0 + ; d @ $ : 5 = 4 5 , * @ 5 o 4 t * ; * > * ; w * + * : : , q . * 4 4 + > 5 O : 0 $ * 4 5 * ; 4 @ * ",
"j t 5.&.1.5.S d S 1.} 5.+.V z G >.1.1.&.B d T 9.&.&.$.G j F 5.$.r...z B G 9.&.&.&.j d _ 1.+.9...d l } 1.$.<.+.w t +.1.} 1.+.d l ",
"q j n.1.u.Z.Y 9 B A.&.n.n.V w G d.d.e.n.V w F Z.&.h.u.l t G c.&.d.u.t w Q g.$.n.d.w 5 } c.5.n.5.9 j ..d.e.c.&.t 0 >.g.1.n.&.q q ",
"O , K t j V 9 + * E t V G 5 + , F j f K 5 * > F j F S : * 0 Y f V T * $ j G d F B * O t Y d V V * + w V j V B * * f V l F j o $ ",
"B S V q 9 4 V S S V 3 4 4 S K V S 9 > t B S F S : 4 9 B S V B 5 > d z S F l q * d Y G f V 5 5 d T j S S > > B V S V l > > B F S ",
"6.p.B.H t F C.>.p.S.S 9 ) G.>.j.v.S j K G.y.p.v.l t [ B.:.G.j.f j ' A.1.n.2.V t ..A.:.V.r.j d $.v.q.v.:.j j $.v.6.B.>.q t r.C.:.",
" .' ..N 9 j .. . . .j e j .. .[ $.r 4 S :.[ [  .t 3 S $.'  .[ r > K 1...&.' q 5 Y &.} @.` w w T $.[ .._ 6 e _  .[ ..E 6 r _  ...",
"$ $ t : # : : = : e $ $ : $ : $ t $ $ > : $ 6 q : # 3 3 : > q : = 9 = X : 6 = 4 4 = : 5 q $ = 4 = + 6 9 o $ 9 # # 6 6 # > 4 + : ",
"r H 6.:.>.p.K r C p.:.>.p.H j S q.:.y.6.B t _ q.:.p.q.B N ) q.>.5.>.j N ' r.1.2.1.d f _ u.2.1.>.d j [ 5.>.q.$.f j ..y.>.y.@.j r ",
"9 S 1.>.6.v.K 4 N p.1.q.j.S t B c.$.r.v.F > F v.&.v.u.h 9 R r.1.h.1.d d _ u.5.r.1.t q E u.r.r.1.w r ` q.r.p.+.q t  .u.6.h...q 4 ",
"= * l d d j 5 @ > z d z d > > > S w f j 4 O 5 l q d B > o 5 V d B B : . 5 B d l d > = 5 l t d j : @ q z q f j @ : t j t j t + * ",
"Y S Q p 5 w Q F Y Y 0 5 w Y Y Y Y w 0 0 Y Y Q G 0 ; z ` V Y Q 0 * z ` G ` R 1 ; z ` F R G , 1 A Q F Q F ; 5 G Y P Y V , 0 G P Y ",
"7.k.A.Y g P H.7.b.A.Z i ` D.=.M.M.b g ^ Y.3.a.D.Z q ^ D.7.A.s.b k ] D.<.b.7.V k O.H.<.D.e.k d %.M.k.N.<.k k %.M.s.M.=.g v a.N.7.",
"I o.( s < c ~ ~ / X.s & m / U / o.u 1 c ( ~ { X.2 < m ( W ( / u 2 b / / { ~ u - I / W X.~ 1 7 D ( U X.~ < 2 W / W { U 2 2 U { W ",
"c L M s y s n n c L a < c M c m I a u s n x c x s y c m s m M 2 y s n s x m a a s m x m m 2 u c m s m m 2 u m c c M n u u n M c ",
"[.'.[.[.[.[.'.[._.[.[.`.[.[.`.[.(.`.[.[._.[.[.[.[.'.'.`.(.[.[.[.'.[.[._._.'.(.`._.[./.W.`.'.[.'.[._.'.[.[.[.[._.'.'.[.[.[.[.'.'.",
"[.[.`.[.[.[.[.[.[.[.[.[.[.[.[.[.[.[.[./.l.z.-.-.l.m.z.l.z.I.I.P.P.U.T.L.z.m.-.l.l.z.;.z.T.[.{.{.[.[.[.[.[.[.[.[.[.[.[.[.[.[.[.[.",
"{.{.].].[.{.{.{.{.].{.{.[.].{.{.{.{.].].U.E.E.~.E.).!.R.~.).E.R.).].{.!.R.~.Q.).{.^.!.!.).{.{.].{.{.{.[.{.[.[.{.{.{.{.[.[.{.{.{."
};
