/* XPM */
static char *_be9663f29aa4405ad3ef68dac426614[] = {
/* columns rows colors chars-per-pixel */
"64 36 249 2 ",
"   c #050202",
".  c #0E0200",
"X  c #0A0A04",
"o  c #140200",
"O  c #1B0400",
"+  c #140B04",
"@  c #1C0A02",
"#  c #1C0E09",
"$  c #140C0B",
"%  c #1E1103",
"&  c #1D120B",
"*  c #151508",
"=  c #1E1914",
"-  c #181617",
";  c #180F10",
":  c #230600",
">  c #240C02",
",  c #2A0C02",
"<  c #230D0A",
"1  c #2D0B05",
"2  c #310C00",
"3  c #241205",
"4  c #2C1304",
"5  c #25130B",
"6  c #2B140B",
"7  c #2D1A0D",
"8  c #27190A",
"9  c #331403",
"0  c #3A1402",
"q  c #32160A",
"w  c #341A0C",
"e  c #3B1C0C",
"r  c #371A04",
"t  c #2C1511",
"y  c #251B14",
"u  c #2C1C13",
"i  c #2C1C1A",
"p  c #241916",
"a  c #331C13",
"s  c #3A1E12",
"d  c #341D1A",
"f  c #321612",
"g  c #2A0F16",
"h  c #37240B",
"j  c #2D241C",
"k  c #28261B",
"l  c #342113",
"z  c #3C2314",
"x  c #34231B",
"c  c #3B241C",
"v  c #3D2A1D",
"b  c #352915",
"n  c #2F2810",
"m  c #1F1F21",
"M  c #292524",
"N  c #342522",
"B  c #3B2622",
"V  c #342A21",
"C  c #3D2B23",
"Z  c #3B2D2A",
"A  c #362A2A",
"S  c #3E3125",
"D  c #3D322B",
"F  c #3C3C2C",
"G  c #3C3633",
"H  c #421D0B",
"J  c #461C08",
"K  c #451F12",
"L  c #44210C",
"P  c #432413",
"I  c #4C2514",
"U  c #442A15",
"Y  c #4C2A17",
"T  c #43251B",
"R  c #442A1D",
"E  c #4C2B1C",
"W  c #512C1A",
"Q  c #562B17",
"!  c #4C321B",
"~  c #54321D",
"^  c #5A321E",
"/  c #522508",
"(  c #63321C",
")  c #6B351C",
"_  c #643A1E",
"`  c #72361A",
"'  c #612E1B",
"]  c #432621",
"[  c #432D24",
"{  c #4B2D23",
"}  c #462F2B",
"|  c #512E20",
" . c #453224",
".. c #4D3224",
"X. c #45332A",
"o. c #4C342B",
"O. c #4C3A2C",
"+. c #4A3926",
"@. c #533324",
"#. c #5A3424",
"$. c #533A25",
"%. c #5A3B25",
"&. c #53362B",
"*. c #59372B",
"=. c #533B2C",
"-. c #5B3B2B",
";. c #473A35",
":. c #4C3B32",
">. c #483735",
",. c #543D33",
"<. c #5B3D32",
"1. c #553C38",
"2. c #643522",
"3. c #643B25",
"4. c #6A3B24",
"5. c #633D2B",
"6. c #6A3B28",
"7. c #723B23",
"8. c #713F28",
"9. c #623E36",
"0. c #3E4035",
"q. c #57422A",
"w. c #4C423C",
"e. c #4A4633",
"r. c #544134",
"t. c #5C4234",
"y. c #544239",
"u. c #5B453B",
"i. c #5C493D",
"p. c #5C4937",
"a. c #42442F",
"s. c #62422E",
"d. c #6B432D",
"f. c #73442E",
"g. c #7B4B2C",
"h. c #754325",
"j. c #634433",
"k. c #6C4433",
"l. c #654A35",
"z. c #6A4A34",
"x. c #64443A",
"c. c #634A3C",
"v. c #6B4C3C",
"b. c #6B4539",
"n. c #744733",
"m. c #744C33",
"M. c #7D4C35",
"N. c #724D3B",
"B. c #7B4D3B",
"V. c #6B523D",
"C. c #67543B",
"Z. c #74533E",
"A. c #7B543C",
"S. c #7C553A",
"D. c #553A41",
"F. c #4D4846",
"G. c #5D4B44",
"H. c #574743",
"J. c #5A5346",
"K. c #5E5654",
"L. c #634D44",
"P. c #6B4D42",
"I. c #674D4A",
"U. c #724C41",
"Y. c #655244",
"T. c #6C5243",
"R. c #65544C",
"E. c #6B534A",
"W. c #6D5C4C",
"Q. c #6B5A48",
"!. c #735443",
"~. c #7B5543",
"^. c #735A45",
"/. c #7C5A44",
"(. c #72544B",
"). c #745B4C",
"_. c #7B5B4B",
"`. c #7B554B",
"'. c #695853",
"]. c #755B53",
"[. c #7B5D51",
"{. c #775B59",
"}. c #6B6348",
"|. c #7B614C",
" X c #74674B",
".X c #75635A",
"XX c #7C6556",
"oX c #7E6B67",
"OX c #844B2A",
"+X c #844F32",
"@X c #8C4938",
"#X c #84553B",
"$X c #875738",
"%X c #915937",
"&X c #A95B2C",
"*X c #AE6135",
"=X c #A6643B",
"-X c #B2683A",
";X c #845A43",
":X c #8B5A42",
">X c #855E4B",
",X c #8C5F4A",
"<X c #815241",
"1X c #945D47",
"2X c #835F57",
"3X c #86624B",
"4X c #8C634C",
"5X c #89694C",
"6X c #956345",
"7X c #9B6647",
"8X c #826453",
"9X c #8B6451",
"0X c #8C6C53",
"qX c #866A5A",
"wX c #8C6B5A",
"eX c #836855",
"rX c #936B55",
"tX c #9B6D52",
"yX c #946755",
"uX c #8B735C",
"iX c #92735B",
"pX c #9C7458",
"aX c #9F714D",
"sX c #A46645",
"dX c #A86B49",
"fX c #B7734A",
"gX c #A87858",
"hX c #AF724F",
"jX c #856B62",
"kX c #896C66",
"lX c #8A7465",
"zX c #967766",
"xX c #A57A66",
"cX c #B17E63",
"vX c #B7835E",
"bX c #998474",
"nX c #9A876B",
"mX c #A68769",
"MX c #B88669",
"NX c #A58B79",
"BX c #B38F72",
"VX c #B59775",
"CX c #A89A77",
"ZX c #C69976",
"AX c #C58D69",
"SX c #A68D88",
"DX c #CC9E86",
"FX c #C9AC8B",
"GX c #DBC3AB",
/* pixels */
"q.$.=.=.v Y.,.y.o.c ,.u.&.qX*.s { *.b.x.(.E.B Z >.oXkX].5.:XOXh.3XuXuXe *.*.*.P.9.x.P.c.O.=.q. .+.. c 5 g D.>.'..X}. Xh d.:X1X@X",
"$.q.p...> v v O.o.[ } &.x.[.T { { @.*.&.(.jX:.< i '.kXjXU.yX7X6X/.nXzXr E b.<.&.P.v.P.c.=.p.^.C.W.w . < d d B B +.Q.C.r A.M.M.yX",
"O h ..l . 3 5 u c [ B [ E.].} ].(.<.t.c.(.(.X.6 p p Z R.P.N.m.S.z.$.P 9 ..@.R *.P.x.t.-.-.v.Z.l._.V.q (.kX{.u.c t.$.U r l.v.8X`.",
"zXbXbXXXr.O.l o o 5 < O c [ a u.u.z q q 4 e l 3 l + @ x a 4 > , O 4 4 : 9 =.t.t.P ..t.b.z.!./.A./.Z.%.zXzXlXP.qXGXnX! O > z ).u.",
"qXwXqX).E.W.R.[ o O < o @ a 6 O @  .^.8XiXNXeX4 @ 3 5 . . @ l z j._.8Xv.z q q > P v.wX0X/.N.S.:X;Xd.L iX_.! $.VXBXDX3Xe w o + + ",
"_./.v.*.=.t.).L.6 5 B x X.L.L.o [ ).uXiXxXBXBX5Xe 4 @ o x X.R.lX[.!.8XzXeXt.-.w C.qXwX9X4X;XM.M.:X;X0 z.q.h 5XVXaXMXtX#.w 3 p * ",
"n.k.5.#.#.@.[.(., q =.o.c.XXjXz R V.3XgXaX$X7XgXpX/.U 3 y.y.G..X!.U._.v.|.uXuX@ C.^.N.m.4XtX6X:X1XxXU @ % C.FXVXZXgXMXxX!.R.0.  ",
"4.) 2.3.k.^ ~.b.9 ..v.=.l.T.8X$.9 j.m.6XdX=XdXdXvXDXwX>  .R.'.u.(.-.v.b.^.l.eXh ^.uX5XS.#X#X$X6X<X>X!.3 8 nXFXmXZXcXhXtXzXlXF k ",
"` ) 7.7.( ( n.~.9 j.v.#.z./.iX%.9 d.+XsXfX-X-X-XfXMXDXH T E.E.u.P.b.P.T.V.).C.U C.mXiX0X#X#X+X:XxXE.3 8 e. XCXVXAXAXhXsXxXeXS * ",
"` ` 7.7.( 2.f.d.0 5.Z.5.d.A.0XW 1 6.+XsXfX*X&X&XdXsXcXd.H x.E.P.x.@.@.t.v.!.$.@ q.mX0X/.m.M.f.9X2Xc x k a.}.}.mXaXdXsXdXtXz.h b ",
"` ` 7.) ( 4.6.Q 0 Y k.5.5.z.;XL 2 3.#XsXfX*X*X*XfX%X$X,X0 @.x.*.<.<.v.).^.V.! , %.mXiX4XrX>Xm.~.] B & + k e. X|.ZXgX6X7XtXS.$.z ",
") ) ) ( ( f.d.Q I 0 #.-.-.s.N.r : E B.6XsX=XdXfX=X6X:XyX0 P b.j.x.x.x.l.$.Y r , Y z.^ ~ 5.~ e 4 6 C + . $ j J.$./.m._ / J L P r ",
"( ( 2.2.2.N.N.-.*., P @.*.*.j.s , ] _.zXgXhXdXdX+XmXzX/.e , *.*.w 6 > , e Y W W 0 2 O O : O q > O.6 x u p 8 . 7 O O : O > L @.E ",
"3.3.3.#.| *.j.&.T o f z { { ..c i Z {.lX9XS.3.^ I !.l.w z w R z 6 O.c.^.qXzXxXxXpX3XZ.j.R o 3 8 T.=.[ s t t @ @ 3 % 8 +.Q.XX`.(.",
"| W @.{ f f c B c x H.[ c c d i - - G ;.z w : O O 4 @ @ :.u.u.O.3 W.bXzXwX>X~.B.,XrXwXlXzX .X.W.^.iXs.{ ] } I.N & F J.R.W.u.1.{.",
"> , a a O O t c L.jXSXI.[ d t & M   - & o 3 3 l  .C O.i.Y.c.u.V.l W.lX|.>X>XB.n.B.9X~._.NX .7 ).0X5XrXN.U.2XI.G.j J.J.e.i.u.,.9.",
"+ + + $ O @ c x.N.!.5.qX<., u j p & p   & w.:.'.'.i.O.XX[.=.t.l.v T._./.0XyXM.4.M.#X,X9XiXP s _.$X6XaXtX;Xk.b.T.7 r.c.,.=.t.j.9.",
"k = $ + i >.<.*.Q 6.^ /.-.l C N V x ;.V ;..XR.R.R.,.u.).<.t.v.-.4 i.8X8X9X;Xn.f.4.8.f.B./.9 9 v.$X%X%X$XS.m.z.j.4 @.j.=.*.-.*.@.",
"= = = j >.G.u.@.Q 3.^ v.@.v D N C X.R.y.,.W.i.=.[ w t.qXt.T.P.&.t u..X].!.v.d.d.A.<X~.~._.s 7 l.m.g.g.m.S.;XZ.-.> R =.&.<.l.b.j.",
"j = p G w.;.o.*.#.5.#.b.R c Z Z R..XlXu.q w 9 , E P R 8Xx.t.<.[ i ;.G.L.L.P.N.N.-.k.N.v.x.w u c.A.m.3.~ s.|.qXXXq  .=.....&.@.@.",
"w.j & N ;.X.{ &.| #.#.v.{ B D w.:.E.|.-.P #.d.m.3X4XI @.{ T { B ; A F.K.R.E.P.c.v._.!.t.c > u c.s.z.z.j.l.^.).T.6 [ ,.-.=.&.&.-.",
"u u u x Z X.X.{ T E *.P.{ N A w.R.[.T.*.d.M.M.+X6XxX2.1 P &.1.N $ M F.K.:.C x q (.E.=.R 3 3 u O.=.l.T.c.=.[ l 3 @ a [ o.=. .[ o.",
"> 3 u C } [ B T T { &.&.a N A >.1.P.@.~ #X:X$X%X+X1X,X9 @.(.G.N p m G G i < > O 6 , O 6 v ,.v u u.:.C 5 O o @ 5 5 7 7 w s w 6 a ",
"c.a @ d X.C d z s R R s O B >.>.o.P.W Q #X+Xh.%X7Xg.MXI *.{.1.i M X . + @ u X.[ s q 4 Y.zXNXu.@ 8 & @ & & & 5 u 7 5 @ 3 R =.u.E.",
"zXE.6 6 C C c s T 9 : , > O d 1.u.v.H Q #X+XOXOXOX7XtXJ { E.H.N + . y y.R.c.u.P.(.v.z v.v.^.|.6 & . & u x C i.bXoXG.x o.E.L.u.y.",
"-._.c.X.t c x O : , e e q , < < s P L 3.:X+Xg.+X+XM.,X5.w ,.} . ;.:.r.y.r.&.@.*.j.*., s.l.V.eXp.+ j ;.V D R.R.i..XL.c X.u.o.X.X.",
"H @.t.P.d O > 4 w j.wXzXwX(.&.6 6 O r s.m.g.g.#Xh.f.>X!.> t i u L.E.T.t.....@.@.5.s.9 %.%.! ^.lXC D ;.X.:.R.i.:.i.y.v [ o.] [ o.",
"#.P R c.L.@ a T.zXzX4Xk.k.`.kXkX[.4 P 5.~ #.^ d.d.N.z.<.f > 5 L.,.j.x.j.-.@.#.-.#.-.2 @.s.@.l.XX:.V S ;.y.y.o.y.=.=.c [ o.[ :.y.",
"Q E R w ].u  .E.v.k.5.6.k.n.k.9.zXz z $.$.j.s.s.v.@.e w R , a 1.@.~ %.j.j.#.@.*.5.j., P t.=.w 4 u S u.O.=.i.&.R @.=.T c  .[ o.:.",
"0 Q @., L.> z ..-.~ Q 6.f.8.2.#.x.4 > z ..-.o. .R O 4 l a O X.R @.Y E #.-.@.@.*.x.v., > q w > > 6 [ p.+. .-...P E ..w w c v X.[ ",
"I I *...,.3 R &.-.^ ( 4.7.4.' Q .. .6 3 7 3 @ O O @ B ,.u > =. .E Y Y E @.*.*.<.&.&.: O @ s [ L.v l R R U U P @.P E q 4 a c X.[ ",
"I K R &.a l y.O.@.#.3.4.( ^ I L s u.a @ 5 o @ y @ y.:.G.:.[ [ O.T E E T R &.,.o.E.,., s [ y.o.,.[ l z z R @.R ~ U ..w 4 a c [ B ",
"e T q  .S 8 O.r.o.l.-.#.-.W L R T } [ . @ 8 x O.:.[ :.:.N D F.w.[ R c c [ o.O.o.u.c f { &...{ { o.u c C c { { { T R 1 , a d C X.",
"w z 6 C j + j x  .y.,.@.&.R z R { [ x o x X. .X.X.c o.X.u V F.w.O. .[ v [  .B x c 7 s &.=.@.E R C 5 x B x B T T R { 6 6 d a N i ",
"6 s 6 x y   + @ x o.&.{ T s e T ] c a o C :. .v ] c [ C @ & M j C v c c x d 6 @ 5 6 c &.&.@.{ R c # u c a c c s T T 6 7 d d d # ",
", w 6 l &   + + 8 B o.T w q q s a c x o x S v c c c [ B # . $ X % 6 u l u 5 @ @ 6 a [ o.{ ..@.[ c # x C x c z s z s > 6 d B B @ "
};
